<svg xmlns="http://www.w3.org/2000/svg" id="a" width="192.15" height="125" viewBox="0 0 192.15 125"><path d="M179.23,103.51l12.6-15.84h-41.55c11.51-8.98,18.94-22.96,18.94-38.66,0-27.02-21.99-49.01-49.01-49.01-11.86,0-22.75,4.24-31.24,11.27C82.8,4.36,73.83,0,63.86,0,45.28,0,30.17,15.11,30.17,33.68v9.84h24.4v-9.84c0-5.12,4.16-9.28,9.28-9.28s9.28,4.16,9.28,9.28c0,2.51-.2,4.01-4.47,8.19l-37.4,36.9-1.21,1.19v7.7H.31l12.6,15.84L0,118.75h22.59v6.25h146.96v-6.25h22.59l-12.91-15.24Z" fill="#d9d8d6"></path><path d="M168.04,95.43l-18.26-4.08h34.43s-9.74,12.24-9.74,12.24l9.74,11.49h-16.17v-19.65ZM7.94,115.08h16.17s0-19.65,0-19.65h0l18.26-4.08H7.94s9.74,12.24,9.74,12.24l-9.74,11.49ZM26.27,121.32h139.61s0-23.73,0-23.73H26.27s0,23.73,0,23.73Z" fill="#c10230"></path><path d="M57.13,102.75v6.71c0,1.45-1.37,2.55-3.19,2.55h-2.75v4.42h-2.58v-4.42h-2.77c-1.82,0-3.19-1.1-3.19-2.55v-6.71h2.58v7.34h9.32v-7.34h2.58ZM66.25,102.75h12.54v1.92h-9.96v3.96h9.77v1.92h-9.77v3.94h9.96v1.92h-12.54v-13.68ZM87.89,105.3c0-1.43,1.37-2.55,3.19-2.55h8.1c1.79,0,3.19,1.12,3.19,2.55v11.13h-2.58v-4.53h-9.32v4.53h-2.58v-11.13ZM99.79,109.97v-5.3h-9.32v5.3h9.32ZM112.01,102.75h11.29c1.79,0,3.19,1.12,3.19,2.55v2.59c0,.8-.42,1.49-1.25,1.92.81.43,1.2,1.06,1.25,1.81v4.81h-2.58v-5.65h-9.32v5.65h-2.58v-13.68ZM123.91,108.85v-4.18h-9.32v4.18h9.32ZM135.54,113.88v-1.96h2.58v2.59h9.32v-3.94h-8.71c-1.79,0-3.14-1.08-3.19-2.51v-2.75c0-1.43,1.4-2.55,3.19-2.55h8.1c1.82,0,3.19,1.12,3.19,2.55v1.9h-2.58v-2.53h-9.32v3.96h8.71c1.79,0,3.17,1.08,3.19,2.49v2.75c0,1.45-1.37,2.55-3.19,2.55h-8.1c-1.79,0-3.19-1.1-3.19-2.55Z" fill="#fff"></path><rect x="30.41" y="88.83" width="4.35" height="6.03" fill="#d9d8d6"></rect><path d="M120.21,4.06c-12.38,0-23.6,5.03-31.74,13.15-5.32-7.92-14.37-13.15-24.61-13.15-16.34,0-29.63,13.29-29.63,29.63v5.79h16.29v-5.79c0-7.35,5.98-13.33,13.33-13.33s13.33,5.98,13.33,13.33c0,4.73-1.76,7.24-5.69,11.09l-35.66,35.19-.45.44-1.27,1.26v12.22h59.37v-8.74c7.48,5.55,16.72,8.83,26.72,8.83,24.79,0,44.96-20.17,44.96-44.96S145,4.06,120.21,4.06ZM148.81,49.01c0,15.77-12.83,28.6-28.6,28.6s-28.6-12.83-28.6-28.6,12.83-28.6,28.6-28.6,28.6,12.83,28.6,28.6ZM77.19,62.08c1.75,5.74,4.6,10.99,8.33,15.51h-24.08l15.74-15.51Z" fill="#011e41"></path><path d="M120.36,78.02c-15.98,0-28.97-13-28.97-28.97s13-28.97,28.97-28.97,28.97,13,28.97,28.97-13,28.97-28.97,28.97Z" fill="#011e41"></path><path d="M120.36,21.42c15.26,0,27.62,12.37,27.62,27.62s-12.37,27.62-27.62,27.62-27.62-12.37-27.62-27.62,12.37-27.62,27.62-27.62M120.36,18.72c-16.72,0-30.32,13.6-30.32,30.32s13.6,30.32,30.32,30.32,30.32-13.6,30.32-30.32-13.6-30.32-30.32-30.32h0Z" fill="#011e41"></path><path d="M120.36,77.27c-15.56,0-28.22-12.66-28.22-28.22s12.66-28.22,28.22-28.22,28.22,12.66,28.22,28.22-12.66,28.22-28.22,28.22Z" fill="#c10230"></path><path d="M120.36,21.42c15.26,0,27.62,12.37,27.62,27.62s-12.37,27.62-27.62,27.62-27.62-12.37-27.62-27.62,12.37-27.62,27.62-27.62M120.36,20.22c-15.89,0-28.82,12.93-28.82,28.82s12.93,28.82,28.82,28.82,28.82-12.93,28.82-28.82-12.93-28.82-28.82-28.82h0Z" fill="#fff"></path><path d="M117.38,69.72c.3-1.15.56-2.28.79-3.42l1.17-.3v.02c-.2,1.13-.43,2.27-.69,3.41l-1.27.29Z" fill="#fff"></path><path d="M143.11,65.23c-.83.81-1.62,1.61-2.38,2.46l-1.05-.32c.72-.87,1.49-1.75,2.3-2.58l1.13.42v.02Z" fill="#fff"></path><path d="M122.81,68.28l.57-3.43,1.16-.32v.02c-.21,1.13-.4,2.27-.58,3.4l-1.16.33Z" fill="#fff"></path><path d="M120.16,69.03c.22-1.15.43-2.29.62-3.44l1.16-.33v.02s-.57,3.42-.57,3.42l-1.21.33Z" fill="#fff"></path><path d="M114.47,70.23c.4-1.12.75-2.24,1.06-3.36l1.18-.24v.02c-.26,1.11-.56,2.25-.92,3.36l-1.32.21Z" fill="#fff"></path><path d="M115.25,63.72c.38.55.78,1.14,1.19,1.68l.27,1.24-.59.12c-.69-.92-1.35-1.88-1.95-2.85.36-.06.72-.11,1.09-.19Z" fill="#fff"></path><path d="M108.65,67.27c-.2,0-.4-.04-.6-.06-.39-1.11-.72-2.18-.98-3.3.35.08.7.1,1.06.14.18.64.61,1.95.61,1.95.16.43.32.86.5,1.3l-.6-.03Z" fill="#fff"></path><path d="M109.42,64.16c.35.02.71.04,1.06.03.25.61.83,1.88.83,1.88.2.41.42.82.64,1.23l-.6.04h-.6c-.51-1.04-.95-2.09-1.33-3.18Z" fill="#fff"></path><path d="M113.45,67.18c-.61-.98-1.17-1.99-1.67-3.02.36-.02.71-.03,1.07-.08.32.58,1.02,1.78,1.02,1.78.25.39.5.78.76,1.16l-.59.09-.59.07Z" fill="#fff"></path><path d="M111.46,70.49c.52-1.08.99-2.16,1.39-3.24l1.2-.13v.02c-.35,1.08-.76,2.19-1.23,3.27l-1.36.08Z" fill="#fff"></path><polygon points="117.3 66.5 116.71 66.64 116.44 65.4 117.3 66.5" fill="#fff"></polygon><path d="M143.68,65.41l-.56-.21.45-1.19c.05.47.08.93.12,1.39Z" fill="#fff"></path><path d="M142.07,61.52c.43.13.86.26,1.27.42.1.69.16,1.41.23,2.09l-.45,1.19-.56-.21c-.11-1.17-.27-2.33-.49-3.48Z" fill="#fff"></path><path d="M105.79,63.67c.12.67.41,2,.41,2,.11.45.23.9.36,1.35l-.59-.11-.58-.11c.19.04.39.08.58.11v.02c-.69.95-1.42,1.85-2.2,2.72-.44-.11-.88-.2-1.31-.34.81-.84,1.6-1.75,2.32-2.65.2.05.39.1.59.14-.27-1.14-.48-2.28-.64-3.39l1.05.26Z" fill="#fff"></path><path d="M100.13,61.74l1.03.45c.01.68.07,2.05.07,2.05.03.46.07.93.11,1.39l-.56-.21-.05-.02s.03.01.05.02v.02c-.35.33-.71.66-1.07.97-.02-.49-.03-.97-.02-1.43.17.08.35.14.53.21-.07-1.16-.09-2.32-.08-3.45Z" fill="#fff"></path><path d="M129.84,63.46v.02c-.36,1.08-.67,2.21-.93,3.3-.36.06-.73.14-1.09.21.24-1.11.51-2.25.83-3.36.4-.06.79-.14,1.19-.17Z" fill="#fff"></path><path d="M125.35,67.58c.19-1.13.4-2.28.65-3.41.39-.09.78-.19,1.18-.26v.02c-.27,1.11-.5,2.25-.71,3.36l-1.12.29Z" fill="#fff"></path><path d="M140.54,64.37c-.76.84-1.49,1.76-2.15,2.67-.35-.09-.7-.17-1.06-.23.63-.97,1.31-1.87,2.05-2.77.39.1.78.18,1.17.31v.02Z" fill="#fff"></path><path d="M137.92,63.74c-.68.95-1.3,1.86-1.87,2.86l-1.06-.12c.52-1,1.11-1.98,1.75-2.96.4.06.79.14,1.19.21v.02Z" fill="#fff"></path><path d="M135.24,63.36c-.58,1.01-1.1,2.03-1.56,3.04h-1.07c.41-1.04.89-2.11,1.42-3.13l1.2.07v.02Z" fill="#fff"></path><path d="M132.54,63.26v.02c-.47,1.05-.88,2.13-1.23,3.19-.36.03-.72.08-1.07.11.31-1.08.68-2.2,1.1-3.27.4-.02.8-.06,1.21-.06Z" fill="#fff"></path><path d="M125.62,61.02c.44.53.88,1.09,1.3,1.64l.26,1.24c-.2.04-.39.08-.58.13-.71-.91-1.47-1.82-2.23-2.7.41-.11.83-.21,1.26-.3Z" fill="#fff"></path><path d="M138.16,62.47c.13.45.25.9.36,1.36-.2-.04-.39-.07-.59-.11l-.59-.11c-.32-1.14-.7-2.22-1.14-3.33.45.06.91.09,1.35.17.23.66.61,2.02.61,2.02Z" fill="#fff"></path><polygon points="119.92 65.83 119.34 65.99 119.01 64.77 119.92 65.83" fill="#fff"></polygon><path d="M134.53,60.14c.3.63.57,1.26.83,1.89l-.11,1.3-.6-.03c-.43-1.08-.93-2.16-1.49-3.2.46,0,.91,0,1.37.04Z" fill="#fff"></path><path d="M131.49,60.15c.36.6.7,1.18,1.02,1.8l.03,1.3c-.2,0-.4.01-.6.02-.54-1.01-1.16-2.05-1.81-3.02.45-.06.9-.08,1.35-.11Z" fill="#fff"></path><path d="M135.84,63.4l-.6-.07.11-1.26c.17.44.34.89.49,1.33Z" fill="#fff"></path><path d="M103.34,66.29l-.57-.18c-.17-1.15-.28-2.28-.34-3.44.34.14.69.26,1.04.36.06.66.23,2.04.23,2.04.07.46.14.93.23,1.38-.2-.04-.39-.1-.58-.16Z" fill="#fff"></path><path d="M102.18,65.93l1.15.36v.02c-.77.85-1.58,1.7-2.44,2.52l-1.02-.38c-.01-.09-.02-.18-.03-.26.81-.73,1.59-1.47,2.34-2.25Z" fill="#fff"></path><path d="M110.14,67.35h1.21s0,.02,0,.02c-.46,1.04-.99,2.09-1.57,3.13l-1.37-.08c.64-1.02,1.22-2.02,1.74-3.07Z" fill="#fff"></path><path d="M107.45,67.15c.4.04.8.11,1.2.13v.02c-.58,1.01-1.21,1.96-1.91,2.94-.46-.05-.9-.15-1.35-.22.74-.93,1.42-1.87,2.05-2.86Z" fill="#fff"></path><path d="M140.9,63.13c.08.47.16.93.22,1.39l-.58-.18c-.19-.05-.38-.12-.57-.17-.21-1.13-.48-2.28-.8-3.43l1.31.32c.16.67.41,2.06.41,2.06Z" fill="#fff"></path><polygon points="125.13 64.38 124.55 64.53 124.22 63.31 125.13 64.38" fill="#fff"></polygon><path d="M133.14,63.25h-.6s-.03-1.26-.03-1.26c.22.42.43.84.63,1.26Z" fill="#fff"></path><path d="M120.24,62.47l1.35,1.53.36,1.25-.58.16c-.77-.87-1.53-1.74-2.28-2.63l1.15-.32Z" fill="#fff"></path><path d="M117.71,63.16c.42.53.86,1.09,1.3,1.61l.33,1.22-.58.15c-.75-.89-1.47-1.79-2.16-2.71.37-.09.74-.17,1.11-.27Z" fill="#fff"></path><polygon points="122.52 65.09 121.94 65.26 121.59 64.04 122.52 65.09" fill="#fff"></polygon><polygon points="122.86 61.73 124.22 63.31 124.55 64.53 123.97 64.69 121.67 62.06 122.86 61.73" fill="#fff"></polygon><path d="M130.44,63.39l-.6.07-.16-1.26c.26.4.51.79.75,1.19Z" fill="#fff"></path><path d="M128.5,60.47c.41.56.81,1.15,1.19,1.73l.16,1.26c-.2.02-.4.04-.59.08-.64-.96-1.34-1.93-2.06-2.84.43-.09.87-.15,1.31-.22Z" fill="#fff"></path><polygon points="127.77 63.79 127.18 63.9 126.92 62.66 127.77 63.79" fill="#fff"></polygon><path d="M147.98,49.04c-4.24,0-55.25,15.26-55.25,0s12.37-27.62,27.62-27.62,27.62,12.37,27.62,27.62Z" fill="#011e41"></path><path d="M77.68,55.85l3.41-.45c-.24-.5-.38-1.06-.38-1.66v-12.79c0-2.05,1.6-3.81,3.64-4l5.33-.51c.17-.02.33-.02.49-.02.78.02,1.5.28,2.09.69.64-.64,1.49-1.07,2.44-1.16l5.32-.51c.17-.02.33-.02.49-.02.78.02,1.49.28,2.08.69.64-.64,1.49-1.07,2.44-1.16l3.59-.35s.18-.02.45-.01c.46.01.89.09,1.29.23.52-.31,1.1-.49,1.68-.55l3.53-.34c.17-.02.33-.02.49-.02.81.02,1.55.3,2.15.74.64-.67,1.52-1.13,2.5-1.22l13.22-1.28c.2-.02.4-.03.59-.02.96.03,1.84.35,2.56.89.66-.79,1.61-1.33,2.69-1.43l5.32-.51c.17-.02.33-.02.49-.02.24,0,.48.04.71.09v-.19l13-1.25v11.93c0,1.64-1.04,3.12-2.5,3.76v3.02c0,2.78-2.07,5.3-4.82,5.88l-62.76,14.73-11.55-13.19Z" fill="#011e41"></path><path d="M84.62,39.15l5.33-.51c.94-.09,1.7.6,1.7,1.53v2.44l-3.54.34v-1.49l-1.77.17v10.71l1.75-.22v-5.06l-.82.1.77-2.21,3.58-.36v8.04c0,.94-.76,1.79-1.7,1.91l-5.3.67c-.94.12-1.7-.54-1.7-1.48v-12.72c0-.94.76-1.77,1.7-1.86ZM112.66,39.09l1.75-.17v12.55l3.46-.44v-13.37c0-.94-.76-1.62-1.69-1.53l-3.53.34s-1.69.16-1.69,1.88c0-1.71-1.73-1.55-1.73-1.55l-3.59.35c-.94.09-1.69.92-1.69,1.86v13.8l3.5-.44v-12.77l1.75-.17v12.71l3.46-.44v-12.61ZM96.91,53.67v-5.22l1.75-.22v5.22l3.46-.44v-13.85c0-.94-.76-1.62-1.69-1.53l-5.32.51c-.94.09-1.69.92-1.69,1.86v14.11l3.5-.44ZM96.91,40.59l1.69-.16v6.1l-1.69.21v-6.15ZM141.87,47.95v-5.13l1.75-.22v5.13l3.46-.44v-12.48c0-.94-.76-1.62-1.69-1.53l-5.32.51c-.94.09-1.69.92-1.69,1.86v12.74l3.5-.44ZM141.87,36.24l1.69-.16v4.82l-1.69.21v-4.87ZM119.71,37.48v11.65c0,.93.75,1.58,1.68,1.47l5.43-.69v-2.58l-3.62.46v-4.35l2.61-.31.73-1.89-3.34.39v-3.5l3.51-.34v-2.66l-5.32.52c-.93.09-1.68.91-1.68,1.84ZM127.98,34.97v14.75l6.33-.8c1.31-.17,2.37-1.36,2.37-2.67v-9.65c0-1.36-1.1-2.36-2.47-2.23l-6.24.6ZM132.32,37.09c.49-.05.88.31.88.79v7.64c0,.49-.39.93-.88.99l-.88.11v-9.46l.88-.09ZM153.69,32.49v8.98l-1.77.22v-9.04l-3.4.33v9.82c0,.91.74,1.56,1.66,1.45l1.04-.13v3.37c0,.46-.38.89-.85.95l-68.3,9.06,7.94,9.07,61.49-14.43c1.74-.36,3.08-1.98,3.08-3.72v-4.81l.84-.11c.91-.12,1.66-.95,1.66-1.87v-9.48l-3.4.33Z" fill="#fff"></path><path d="M89.93,66.85l-8.36-9.54,68.78-9.12c.33-.04.62-.36.62-.69v-3.08s-.74.1-.74.1c-.52.07-1.01-.08-1.38-.4-.37-.32-.57-.78-.57-1.3v-10.06l3.91-.38v9.03l1.26-.16v-8.99l3.91-.38v9.76c0,1.04-.84,1.99-1.88,2.12l-.62.08v4.58c0,1.88-1.41,3.59-3.29,3.97l-61.63,14.46ZM82.59,57.69l7.52,8.59,61.34-14.39c1.62-.33,2.88-1.85,2.88-3.47v-5.04l1.07-.14c.79-.1,1.43-.82,1.43-1.61v-9.2l-2.88.28v8.98l-2.28.29v-9.05l-2.88.28v9.59c0,.37.14.69.39.91.26.23.6.33.97.28l1.33-.17v3.66c0,.6-.48,1.12-1.07,1.2l-67.82,9ZM84.41,55.49c-.44,0-.84-.15-1.16-.43-.37-.33-.58-.8-.58-1.33v-12.72c0-1.06.87-2.01,1.93-2.12l5.33-.51c.53-.05,1.03.11,1.4.45.37.34.58.81.58,1.34v2.67l-4.05.39v-1.49l-1.26.12v10.18l1.24-.16v-4.54l-.94.12.95-2.76,4.03-.4v8.32c0,1.06-.86,2.03-1.92,2.17l-5.3.67c-.08.01-.17.02-.25.02ZM84.65,39.41c-.81.08-1.46.8-1.46,1.6v12.72c0,.38.14.71.41.94.27.23.62.34,1,.29l5.3-.67c.81-.1,1.47-.85,1.47-1.66v-7.76l-3.14.31-.58,1.66.7-.09v5.58l-2.26.29v-11.23l2.29-.22v1.49l3.02-.29v-2.2c0-.38-.15-.72-.41-.96-.27-.24-.62-.36-1.01-.32l-5.33.51ZM93.16,54.41v-14.4c0-1.06.86-2.01,1.93-2.11l5.32-.51c.53-.05,1.02.11,1.4.45.37.34.58.81.58,1.34v14.07l-3.97.5v-5.22l-1.24.16v5.22l-4.01.51ZM100.59,37.89s-.09,0-.14,0l-5.32.51c-.81.08-1.46.8-1.46,1.6v13.82l2.99-.38v-5.22l2.26-.29v5.22l2.94-.37v-13.62c0-.38-.15-.72-.41-.96-.23-.21-.54-.32-.86-.32ZM103.68,53.1v-14.09c0-1.06.86-2.01,1.93-2.11l3.59-.35s.9-.07,1.49.47c.1.09.18.19.25.3.4-.75,1.2-1.05,1.68-1.1l3.53-.34c.53-.05,1.02.11,1.4.45.37.34.58.81.58,1.34v13.6l-3.97.5v-12.56l-1.24.12v12.6s-3.98.5-3.98.5v-12.72l-1.24.12v12.76l-4.01.51ZM109.33,37.06c-.05,0-.08,0-.08,0l-3.59.35c-.81.08-1.46.8-1.46,1.6v13.5l2.99-.38v-12.77l2.26-.22v12.7l2.94-.37v-12.62s2.28-.22,2.28-.22v12.54l2.94-.37v-13.15c0-.38-.15-.72-.41-.96-.27-.24-.62-.36-1-.32l-3.53.34c-.06,0-1.46.17-1.46,1.63h-.51c0-.42-.12-.75-.35-.96-.33-.31-.82-.34-1.01-.34ZM121.18,50.87c-.43,0-.83-.15-1.15-.42-.37-.33-.57-.79-.57-1.31v-11.65c0-1.05.86-2,1.91-2.1l5.6-.55v3.18l-3.51.34v2.98l3.48-.41-.95,2.43-2.53.31v3.83l3.62-.46v3.1l-5.65.72c-.08.01-.17.02-.25.02ZM126.46,35.4l-5.04.49c-.8.08-1.45.79-1.45,1.59v11.65c0,.37.14.7.4.93.26.23.61.33.99.28l5.21-.66v-2.06l-3.62.46v-4.87l2.68-.32.52-1.35-3.2.37v-4.02l3.51-.34v-2.15ZM127.73,50.01v-15.27l6.47-.62c.74-.07,1.43.15,1.95.62.52.47.8,1.13.8,1.86v9.65c0,1.43-1.16,2.75-2.6,2.93l-6.62.84ZM128.24,35.2v14.22l6.05-.77c1.18-.15,2.15-1.23,2.15-2.42v-9.65c0-.58-.23-1.11-.63-1.48-.41-.37-.96-.55-1.55-.49l-6.01.58ZM138.11,48.69v-13.03c0-1.06.86-2.01,1.93-2.11l5.32-.51c.53-.05,1.02.11,1.4.45.37.34.58.81.58,1.34v12.7l-3.97.5v-5.13l-1.24.16v5.13l-4.01.51ZM145.55,33.54s-.09,0-.14,0l-5.32.51c-.81.08-1.46.8-1.46,1.6v12.45l2.99-.38v-5.13l2.26-.29v5.13l2.94-.37v-12.25c0-.38-.15-.72-.41-.96-.23-.21-.54-.32-.86-.32ZM96.66,47.03v-6.67l2.2-.21v6.6l-2.2.28ZM97.17,40.83v5.62l1.17-.15v-5.59l-1.17.11ZM131.18,46.92v-9.98l1.11-.11c.31-.03.6.06.82.26.22.2.34.48.34.79v7.64c0,.62-.49,1.17-1.1,1.25l-1.17.15ZM131.7,37.41v8.93l.59-.08c.36-.04.66-.38.66-.74v-7.64c0-.16-.06-.3-.17-.41-.11-.1-.26-.15-.43-.13l-.02-.26.02.26-.65.06ZM141.61,41.41v-5.39l2.2-.21v5.33l-2.2.28ZM142.13,36.48v4.34l1.17-.15v-4.31l-1.17.11Z" fill="#c10230"></path><polygon points="125.04 29.12 123.26 28.02 125.46 27.78 126.14 25.6 126.83 27.63 129.05 27.4 127.25 28.87 127.93 30.91 126.15 29.81 124.35 31.31 125.04 29.12" fill="#fff"></polygon><path d="M126.15,25.85l.63,1.87,2.04-.22-1.65,1.35.63,1.89-1.65-1.02-1.65,1.37.63-2-1.65-1.02,2.04-.22.63-2M126.14,25.36l-.14.44-.6,1.91-1.94.21-.43.05.37.23,1.55.96-.59,1.89-.15.49.39-.33,1.56-1.3,1.56.96.35.22-.13-.39-.6-1.79,1.57-1.29.39-.32-.5.05-1.92.21-.59-1.76-.15-.44h0Z" fill="#fff"></path><polygon points="116.95 29.91 115.16 28.8 117.37 28.57 118.05 26.39 118.73 28.42 120.96 28.18 119.16 29.68 119.84 31.7 118.06 30.6 116.26 32.1 116.95 29.91" fill="#fff"></polygon><path d="M118.05,26.63l.63,1.87,2.04-.22-1.65,1.37.63,1.87-1.65-1.02-1.65,1.37.63-2-1.65-1.02,2.04-.22.63-2M118.05,26.15l-.14.44-.6,1.91-1.94.21-.43.05.37.23,1.55.96-.59,1.89-.15.49.39-.33,1.56-1.3,1.56.96.35.22-.13-.39-.6-1.77,1.57-1.31.38-.32-.49.05-1.92.21-.59-1.76-.15-.44h0Z" fill="#fff"></path><polygon points="108.82 30.71 107.03 29.6 109.24 29.37 109.92 27.19 110.6 29.22 112.83 28.98 111.03 30.48 111.71 32.5 109.93 31.4 108.13 32.9 108.82 30.71" fill="#fff"></polygon><path d="M109.92,27.43l.63,1.87,2.04-.22-1.65,1.37.63,1.87-1.65-1.02-1.65,1.37.63-2-1.65-1.02,2.04-.22.63-2M109.92,26.95l-.14.44-.6,1.91-1.94.21-.43.05.37.23,1.55.96-.59,1.89-.15.49.39-.33,1.56-1.3,1.56.96.35.22-.13-.39-.6-1.77,1.57-1.31.38-.32-.49.05-1.92.21-.59-1.76-.15-.44h0Z" fill="#fff"></path><path d="M100.87,56.15l6.21-.79v1.47l-5.48.79v.93l4.72-.74c.42-.06.76.22.76.63v2.19c0,.41-.34.82-.76.92l-6.21,1.43v-1.66l5.42-1.15v-.72l-4.66.82c-.42.08-.76-.22-.76-.66v-2.57c0-.44.34-.85.76-.9ZM96.92,62.02l-3.74.81v-5.7l-1.66.21v6.77c0,.49.35.81.78.71l5.42-1.26c.43-.1.78-.55.78-1.01v-6.08l-1.57.2v5.37ZM115.58,54.96v4.45l-1.55.35v-1.02l-3.85.81v1.08l-1.57.36v-5.09c0-.41.35-.79.78-.84l5.42-.69c.43-.05.78.21.78.58ZM114.03,57.35v-1.46l-3.85.56v1.59l3.85-.69Z" fill="#c10230"></path></svg>